HIERARCHY
ROOT Hip
{
	OFFSET 0 0 0
	CHANNELS 6 Xposition Yposition Zposition Zrotation Yrotation Xrotation
	JOINT ShoulderCenter
	{
		OFFSET 0 0.4363 0
		CHANNELS 3 Zrotation Yrotation Xrotation
		JOINT Head
		{
			OFFSET 0 0.1849 0
			CHANNELS 3 Zrotation Yrotation Xrotation
			End Site
			{
				OFFSET 0.0 0.0891 0.0
			}
		}
		JOINT ShoulderLeft
		{
			OFFSET -0.14 0 0
			CHANNELS 3 Zrotation Yrotation Xrotation
			JOINT ElbowLeft
			{
				OFFSET -0.25 0 0
				CHANNELS 3 Zrotation Yrotation Xrotation
				JOINT WristLeft
				{
					OFFSET -0.23 0 0
					CHANNELS 3 Zrotation Yrotation Xrotation
					End Site
					{
						OFFSET -0.0832 0.0 0.0
					}
				}
			}
		}
		JOINT ShoulderRight
		{
			OFFSET 0.14 0 0
			CHANNELS 3 Zrotation Yrotation Xrotation
			JOINT ElbowRight
			{
				OFFSET 0.25 0 0
				CHANNELS 3 Zrotation Yrotation Xrotation
				JOINT WristRight
				{
					OFFSET 0.23 0 0
					CHANNELS 3 Zrotation Yrotation Xrotation
					End Site
					{
						OFFSET 0.0832 0.0 0.0
					}
				}
			}
		}
	}
	JOINT HipLeft
	{
		OFFSET -0.0952 0 0
		CHANNELS 3 Zrotation Yrotation Xrotation
		JOINT KneeLeft
		{
			OFFSET 0 -0.3732 0
			CHANNELS 3 Zrotation Yrotation Xrotation
			JOINT AnkleLeft
			{
				OFFSET 0 -0.346 0
				CHANNELS 3 Zrotation Yrotation Xrotation
				End Site
				{
					OFFSET 0.0 0.0 0.0891
				}
			}
		}
	}
	JOINT HipRight
	{
		OFFSET 0.0952 0 0
		CHANNELS 3 Zrotation Yrotation Xrotation
		JOINT KneeRight
		{
			OFFSET 0 -0.3732 0
			CHANNELS 3 Zrotation Yrotation Xrotation
			JOINT AnkleRight
			{
				OFFSET 0 -0.346 0
				CHANNELS 3 Zrotation Yrotation Xrotation
				End Site
				{
					OFFSET 0.0 0.0 0.0891
				}
			}
		}
	}
}
MOTION
Frames: 17
Frame Time: 0.033333
0.000139536 -4.01349e-005 -0.00245787 1.06291 -2.13512 -6.42232 0.132423 -0.9944 -3.39933 -5.03157e-008 2.2743e-008 2.66291e-007 0 0 0 0 0 0 0 0 0 0 0 0 0 0 0 0 0 0 3.6397 19.3765 0.161026 -30.7132 -13.7819 -28.5077 0 0 0 -4.22482 -23.8267 1.06126 29.4297 17.5782 -33.7902 0 0 0 
0.000139696 -4.01258e-005 -0.00245815 1.07064 -2.15939 -6.40969 0.145893 -0.919634 -3.37873 -4.89406e-008 2.55973e-008 2.68345e-007 0 0 0 0 0 0 0 0 0 0 0 0 0 0 0 0 0 0 3.61724 15.7954 0.0901594 -27.8089 -12.2443 -28.653 0 0 0 -4.24288 -23.6349 1.02385 29.3052 17.4706 -33.8488 0 0 0 
0.000139974 -4.01164e-005 -0.00245854 1.07063 -2.31301 -6.42499 0.14851 -0.733276 -3.3814 0 0 0 0 0 0 0 0 0 0 0 0 0 0 0 0 0 0 0 0 0 3.60929 15.6545 0.0175789 -27.6734 -12.1574 -28.6836 2.66966e-007 -2.80632e-008 7.69357e-007 -4.08902 -14.2654 0.967451 21.2742 12.8852 -36.3266 0 0 0 
0.000140321 -4.01108e-005 -0.00245864 1.0284 -2.27904 -6.4277 0.193432 -0.691709 -3.36976 0 0 0 0 0 0 0 0 0 0 0 0 0 0 0 0 0 0 0 0 0 3.6232 14.9257 0.0154515 -26.7889 -11.8443 -29.0939 2.99064e-007 -7.47965e-008 7.76105e-007 -4.0935 -13.0649 0.965124 20.1842 12.0367 -36.4383 0 0 0 
0.000140469 -4.01164e-005 -0.00245881 1.01742 -2.28479 -6.42172 0.226353 -0.692454 -3.34522 0 0 0 0 0 0 0 0 0 0 0 0 0 0 0 0 0 0 0 0 0 3.61685 19.1996 -0.007637 -29.9154 -13.8046 -29.6615 0 0 0 -4.09807 -12.9555 0.980819 20.1643 11.9817 -36.292 0 0 0 
0.000140859 -4.01164e-005 -0.00245934 0.993083 -2.34217 -6.42086 0.288975 -0.549495 -3.25229 -4.50779e-008 3.7081e-008 2.75175e-007 0 0 0 0 0 0 0 0 0 0 0 0 0 0 0 0 0 0 3.5734 18.9952 -0.0626512 -29.6561 -13.7679 -29.819 0 0 0 -4.14717 -14.0732 0.970912 21.6645 12.7363 -35.4769 -4.94048e-007 4.73425e-007 4.42075e-007 
0.000141243 -4.0202e-005 -0.00245964 0.988337 -2.29768 -6.38069 0.21732 -0.499866 -3.29494 0 0 0 0 0 0 0 0 0 0 0 0 0 0 0 0 0 0 0 0 0 3.52489 17.4803 -0.0869556 -27.5382 -13.2966 -31.4245 2.95657e-007 -1.65024e-008 5.23777e-007 -4.19721 -14.8021 0.879125 22.5017 13.0675 -35.2465 0 0 0 
0.00014148 -4.02544e-005 -0.00245966 0.974415 -2.29874 -6.38082 0.135184 -0.456222 -3.29605 -5.43089e-008 4.63378e-008 2.74835e-007 0 0 0 0 0 0 0 0 0 0 0 0 0 0 0 0 0 0 3.50551 15.3524 -0.0555111 -26.1806 -12.2797 -30.7155 3.22049e-007 -1.01566e-007 6.61514e-007 -4.20317 -14.8232 0.879803 22.5329 13.0722 -35.233 -4.67341e-007 4.28892e-007 4.23228e-007 
0.000141594 -4.03062e-005 -0.00245967 0.941856 -2.30645 -6.38027 0.140731 -0.421928 -3.28412 0 0 0 0 0 0 0 0 0 0 0 0 0 0 0 0 0 0 0 0 0 3.54223 14.9754 -0.0170702 -25.6672 -12.1009 -31.0347 0 0 0 -4.17396 -14.7585 0.879708 22.6767 13.0443 -34.9038 0 0 0 
0.000142062 -4.0483e-005 -0.00245968 0.89798 -2.20472 -6.37383 0.138471 -0.490766 -3.29206 0 0 0 0 0 0 0 0 0 0 0 0 0 0 0 0 0 0 0 0 0 3.50247 13.2911 0.0500645 -24.0463 -11.1434 -31.1595 0 0 0 -4.0977 -15.8861 0.870288 22.9601 13.7918 -35.8276 0 0 0 
0.000142111 -4.04992e-005 -0.00245968 0.890952 -2.20114 -6.36656 0.125518 -0.499215 -3.27553 0 0 0 0 0 0 0 0 0 0 0 0 0 0 0 0 0 0 0 0 0 3.50357 12.9388 0.0431245 -23.7971 -10.9325 -30.979 4.09246e-007 -2.17788e-007 7.51593e-007 -4.06736 -15.2882 0.860903 22.4424 13.4603 -35.872 -4.64926e-007 4.37436e-007 3.71146e-007 
0.000142503 -4.05354e-005 -0.00245968 0.876639 -2.18307 -6.31376 0.160072 -0.503378 -3.35695 -4.27988e-009 4.68928e-008 2.7626e-007 0 0 0 0 0 0 0 0 0 0 0 0 0 0 0 0 0 0 3.46977 12.6017 0.00578248 -26.851 -10.2795 -24.7002 3.23747e-007 1.38941e-007 1.10644e-006 -4.04187 -14.7143 0.805597 22.1604 13.1366 -35.5424 0 0 0 
0.000142503 -4.05498e-005 -0.00245965 0.876274 -2.18387 -6.30003 0.0897436 -0.49088 -3.3529 0 0 0 0 0 0 0 0 0 0 0 0 0 0 0 0 0 0 0 0 0 3.46544 12.7348 -0.0154131 -27.2388 -10.2774 -24.2311 3.06251e-007 1.60222e-007 1.12795e-006 -4.03127 -14.4694 0.782448 22.1312 13.0015 -35.2409 0 0 0 
0.000142503 -4.05863e-005 -0.00245955 0.875181 -2.18199 -6.2757 0.0123841 -0.512856 -3.3614 0 0 0 0 0 0 0 0 0 0 0 0 0 0 0 0 0 0 0 0 0 3.43472 13.5872 -0.0428104 -28.2223 -10.6861 -24.0284 0 0 0 -3.98093 -16.9188 0.746558 24.5156 14.4909 -34.4972 -3.80278e-007 3.32088e-007 3.85913e-007 
0.000142544 -4.08079e-005 -0.00245895 0.996986 -2.1254 -6.00851 -0.350015 -0.576061 -4.15309 0 0 0 0 0 0 0 0 0 0 0 0 0 0 0 0 0 0 0 0 0 3.53018 17.3676 -0.302673 -29.3609 -12.8488 -28.2133 2.22248e-007 8.47977e-008 7.20471e-007 -3.81952 -15.0731 0.331965 22.8083 13.5944 -34.7107 -4.17019e-007 4.31831e-007 4.45927e-007 
0.000142584 -4.0829e-005 -0.00245893 1.00233 -2.1286 -6.00391 -0.363727 -0.575998 -4.09311 0 0 0 0 0 0 0 0 0 0 0 0 0 0 0 0 0 0 0 0 0 3.52324 17.599 -0.307079 -29.2532 -12.9912 -28.7325 0 0 0 -3.8251 -15.0815 0.325102 22.8104 13.6066 -34.7112 0 0 0 
0.000142584 -4.083e-005 -0.00245824 0.982283 -1.94251 -5.98423 -0.492687 -0.834228 -3.89449 0 0 0 0 0 0 0 0 0 0 0 0 0 0 0 0 0 0 0 0 0 3.5466 16.91 -0.329379 -27.4462 -12.7863 -30.9726 0 0 0 -3.8031 -16.7939 0.348375 24.3152 14.6221 -34.4467 -3.58258e-007 3.56478e-007 3.99066e-007 
